<svg width="14" height="14" viewBox="0 0 14 14" fill="none" xmlns="http://www.w3.org/2000/svg">
<path d="M12.6087 3.63274C12.9392 3.30238 13.1248 2.85428 13.1249 2.38702C13.1249 1.91976 12.9394 1.47162 12.609 1.14118C12.2787 0.810733 11.8306 0.625059 11.3633 0.625C10.896 0.624941 10.4479 0.810503 10.1175 1.14086L1.77621 9.48399C1.6311 9.62868 1.52378 9.80682 1.46371 10.0027L0.638084 12.7227C0.621931 12.7768 0.620711 12.8342 0.634553 12.8889C0.648396 12.9436 0.676784 12.9935 0.716707 13.0334C0.756629 13.0732 0.806597 13.1015 0.861308 13.1153C0.916019 13.129 0.973433 13.1277 1.02746 13.1115L3.74808 12.2865C3.94382 12.227 4.12194 12.1203 4.26683 11.9759L12.6087 3.63274Z" stroke="#737783" stroke-width="1.25" stroke-linecap="round" stroke-linejoin="round"/>
</svg>
