<svg width="19" height="20" viewBox="0 0 19 20" fill="none" xmlns="http://www.w3.org/2000/svg">
<path d="M3.49873 8.99673L8.99673 0L14.4947 8.99673H3.49873ZM14.4947 19.9927C13.2452 19.9927 12.1831 19.5554 11.3084 18.6807C10.4337 17.806 9.99637 16.7439 9.99637 15.4944C9.99637 14.2448 10.4337 13.1827 11.3084 12.308C12.1831 11.4333 13.2452 10.996 14.4947 10.996C15.7443 10.996 16.8064 11.4333 17.6811 12.308C18.5558 13.1827 18.9931 14.2448 18.9931 15.4944C18.9931 16.7439 18.5558 17.806 17.6811 18.6807C16.8064 19.5554 15.7443 19.9927 14.4947 19.9927ZM0 19.4929V11.4958H7.99709V19.4929H0ZM14.4947 17.9935C15.1945 17.9935 15.786 17.7519 16.2691 17.2687C16.7522 16.7856 16.9938 16.1941 16.9938 15.4944C16.9938 14.7946 16.7522 14.2031 16.2691 13.72C15.786 13.2369 15.1945 12.9953 14.4947 12.9953C13.795 12.9953 13.2035 13.2369 12.7204 13.72C12.2373 14.2031 11.9956 14.7946 11.9956 15.4944C11.9956 16.1941 12.2373 16.7856 12.7204 17.2687C13.2035 17.7519 13.795 17.9935 14.4947 17.9935ZM1.99927 17.4936H5.99782V13.4951H1.99927V17.4936ZM7.04744 6.99746H10.946L8.99673 3.8486L7.04744 6.99746Z" fill="#00459C"/>
</svg>
