<svg width="18" height="18" viewBox="0 0 18 18" fill="none" xmlns="http://www.w3.org/2000/svg">
<path d="M5.94541 8.7932L3.52228 6.39506L4.57147 5.34587L5.92042 6.69483L8.41849 4.19676L9.46768 5.24595L5.94541 8.7932ZM16.5872 17.9861L10.292 11.691C9.79243 12.0907 9.21788 12.4071 8.56838 12.6402C7.91888 12.8734 7.22774 12.99 6.49498 12.99C4.67971 12.99 3.1434 12.3612 1.88604 11.1039C0.628681 9.84656 0 8.31025 0 6.49498C0 4.67971 0.628681 3.1434 1.88604 1.88604C3.1434 0.628681 4.67971 0 6.49498 0C8.31025 0 9.84656 0.628681 11.1039 1.88604C12.3612 3.1434 12.99 4.67971 12.99 6.49498C12.99 7.22774 12.8734 7.91888 12.6402 8.56838C12.4071 9.21788 12.0907 9.79243 11.691 10.292L17.9861 16.5872L16.5872 17.9861ZM6.49498 10.9915C7.74402 10.9915 8.80569 10.5543 9.68002 9.68002C10.5543 8.80569 10.9915 7.74402 10.9915 6.49498C10.9915 5.24595 10.5543 4.18427 9.68002 3.30994C8.80569 2.43562 7.74402 1.99846 6.49498 1.99846C5.24595 1.99846 4.18427 2.43562 3.30994 3.30994C2.43562 4.18427 1.99846 5.24595 1.99846 6.49498C1.99846 7.74402 2.43562 8.80569 3.30994 9.68002C4.18427 10.5543 5.24595 10.9915 6.49498 10.9915Z" fill="#00459C"/>
</svg>
