<svg width="18" height="20" viewBox="0 0 18 20" fill="none" xmlns="http://www.w3.org/2000/svg">
<path d="M7.59413 15.0384L14.6387 7.99382L13.2398 6.5949L7.59413 12.2405L4.74633 9.39274L3.34741 10.7917L7.59413 15.0384ZM1.99846 19.9846C1.44888 19.9846 0.978411 19.7889 0.587046 19.3975C0.195682 19.0061 0 18.5357 0 17.9861V3.99691C0 3.44734 0.195682 2.97687 0.587046 2.5855C0.978411 2.19413 1.44888 1.99846 1.99846 1.99846H6.19521C6.41171 1.39892 6.77393 0.915959 7.28187 0.549575C7.78981 0.183191 8.36021 0 8.99305 0C9.62589 0 10.1963 0.183191 10.7042 0.549575C11.2121 0.915959 11.5744 1.39892 11.7909 1.99846H15.9876C16.5372 1.99846 17.0077 2.19413 17.3991 2.5855C17.7905 2.97687 17.9861 3.44734 17.9861 3.99691V17.9861C17.9861 18.5357 17.7905 19.0061 17.3991 19.3975C17.0077 19.7889 16.5372 19.9846 15.9876 19.9846H1.99846ZM1.99846 17.9861H15.9876V3.99691H1.99846V17.9861ZM8.99305 3.24749C9.20955 3.24749 9.38857 3.17671 9.53014 3.03515C9.6717 2.89359 9.74247 2.71457 9.74247 2.49807C9.74247 2.28157 9.6717 2.10255 9.53014 1.96098C9.38857 1.81942 9.20955 1.74865 8.99305 1.74865C8.77655 1.74865 8.59753 1.81942 8.45596 1.96098C8.3144 2.10255 8.24363 2.28157 8.24363 2.49807C8.24363 2.71457 8.3144 2.89359 8.45596 3.03515C8.59753 3.17671 8.77655 3.24749 8.99305 3.24749Z" fill="#00459C"/>
</svg>
