<svg width="16" height="20" viewBox="0 0 16 20" fill="none" xmlns="http://www.w3.org/2000/svg">
<path d="M7.9948 9.9935C8.54444 9.9935 9.01497 9.7978 9.40638 9.40638C9.7978 9.01497 9.9935 8.54444 9.9935 7.9948C9.9935 7.44516 9.7978 6.97463 9.40638 6.58322C9.01497 6.1918 8.54444 5.9961 7.9948 5.9961C7.44516 5.9961 6.97463 6.1918 6.58322 6.58322C6.1918 6.97463 5.9961 7.44516 5.9961 7.9948C5.9961 8.54444 6.1918 9.01497 6.58322 9.40638C6.97463 9.7978 7.44516 9.9935 7.9948 9.9935ZM7.9948 17.3387C10.0268 15.4732 11.5342 13.7785 12.5169 12.2545C13.4995 10.7305 13.9909 9.37723 13.9909 8.19467C13.9909 6.37918 13.4121 4.89265 12.2545 3.73507C11.097 2.57749 9.67704 1.9987 7.9948 1.9987C6.31256 1.9987 4.89265 2.57749 3.73507 3.73507C2.57749 4.89265 1.9987 6.37918 1.9987 8.19467C1.9987 9.37723 2.49005 10.7305 3.47274 12.2545C4.45543 13.7785 5.96279 15.4732 7.9948 17.3387ZM7.9948 19.987C5.31321 17.7052 3.31035 15.5857 1.98621 13.6286C0.662069 11.6716 0 9.86026 0 8.19467C0 5.69629 0.803644 3.70592 2.41093 2.22355C4.01822 0.741185 5.87951 0 7.9948 0C10.1101 0 11.9714 0.741185 13.5787 2.22355C15.1859 3.70592 15.9896 5.69629 15.9896 8.19467C15.9896 9.86026 15.3275 11.6716 14.0034 13.6286C12.6793 15.5857 10.6764 17.7052 7.9948 19.987Z" fill="#00459C"/>
</svg>
