<svg width="22" height="16" viewBox="0 0 22 16" fill="none" xmlns="http://www.w3.org/2000/svg">
<path d="M0 15.9896V13.1914C0 12.6251 0.145738 12.1046 0.437216 11.6299C0.728693 11.1552 1.11594 10.793 1.59896 10.5431C2.63162 10.0268 3.68094 9.63956 4.74691 9.3814C5.81289 9.12324 6.89551 8.99415 7.9948 8.99415C9.09408 8.99415 10.1767 9.12324 11.2427 9.3814C12.3087 9.63956 13.358 10.0268 14.3906 10.5431C14.8736 10.793 15.2609 11.1552 15.5524 11.6299C15.8439 12.1046 15.9896 12.6251 15.9896 13.1914V15.9896H0ZM17.9883 15.9896V12.9916C17.9883 12.2587 17.7842 11.555 17.3762 10.8804C16.9682 10.2059 16.3893 9.62707 15.6398 9.14405C16.4893 9.24399 17.2888 9.41471 18.0383 9.65622C18.7878 9.89773 19.4873 10.1934 20.1369 10.5431C20.7365 10.8762 21.1945 11.2469 21.511 11.6549C21.8275 12.063 21.9857 12.5086 21.9857 12.9916V15.9896H17.9883ZM7.9948 7.9948C6.89551 7.9948 5.95446 7.60338 5.17164 6.82056C4.38882 6.03774 3.9974 5.09668 3.9974 3.9974C3.9974 2.89811 4.38882 1.95706 5.17164 1.17424C5.95446 0.391412 6.89551 0 7.9948 0C9.09408 0 10.0352 0.391412 10.818 1.17424C11.6008 1.95706 11.9922 2.89811 11.9922 3.9974C11.9922 5.09668 11.6008 6.03774 10.818 6.82056C10.0352 7.60338 9.09408 7.9948 7.9948 7.9948ZM17.9883 3.9974C17.9883 5.09668 17.5969 6.03774 16.8141 6.82056C16.0313 7.60338 15.0902 7.9948 13.9909 7.9948C13.8077 7.9948 13.5745 7.97398 13.2914 7.93234C13.0082 7.8907 12.775 7.8449 12.5918 7.79493C13.0415 7.26195 13.3871 6.67066 13.6286 6.02108C13.8702 5.37151 13.9909 4.69695 13.9909 3.9974C13.9909 3.29786 13.8702 2.62329 13.6286 1.97372C13.3871 1.32414 13.0415 0.732856 12.5918 0.19987C12.825 0.116591 13.0582 0.0624594 13.2914 0.0374756C13.5245 0.0124919 13.7578 0 13.9909 0C15.0902 0 16.0313 0.391412 16.8141 1.17424C17.5969 1.95706 17.9883 2.89811 17.9883 3.9974ZM1.9987 13.9909H13.9909V13.1914C13.9909 13.0082 13.9451 12.8416 13.8535 12.6917C13.7618 12.5418 13.6411 12.4252 13.4912 12.342C12.5918 11.8923 11.6841 11.555 10.768 11.3301C9.85192 11.1053 8.92752 10.9929 7.9948 10.9929C7.06208 10.9929 6.13768 11.1053 5.2216 11.3301C4.30553 11.555 3.39779 11.8923 2.49837 12.342C2.34847 12.4252 2.22772 12.5418 2.13611 12.6917C2.0445 12.8416 1.9987 13.0082 1.9987 13.1914V13.9909ZM7.9948 5.9961C8.54444 5.9961 9.01497 5.8004 9.40638 5.40898C9.7978 5.01757 9.9935 4.54704 9.9935 3.9974C9.9935 3.44776 9.7978 2.97723 9.40638 2.58582C9.01497 2.1944 8.54444 1.9987 7.9948 1.9987C7.44516 1.9987 6.97463 2.1944 6.58322 2.58582C6.1918 2.97723 5.9961 3.44776 5.9961 3.9974C5.9961 4.54704 6.1918 5.01757 6.58322 5.40898C6.97463 5.8004 7.44516 5.9961 7.9948 5.9961Z" fill="#00459C"/>
</svg>
